<svg width="16" height="16" viewBox="0 0 16 16" fill="none" xmlns="http://www.w3.org/2000/svg">
<g clip-path="url(#clip0_222_169)">
<path d="M7.99999 16C9.58224 16 11.129 15.5308 12.4445 14.6518C13.7601 13.7727 14.7855 12.5233 15.391 11.0615C15.9965 9.59966 16.155 7.99113 15.8463 6.43928C15.5376 4.88743 14.7757 3.46197 13.6568 2.34315C12.538 1.22433 11.1126 0.462403 9.56071 0.153721C8.00886 -0.15496 6.40033 0.00346624 4.93852 0.608967C3.47671 1.21447 2.22728 2.23985 1.34823 3.55544C0.469178 4.87104 -1.39267e-05 6.41775 -1.39267e-05 8C-0.00260394 9.05131 0.202554 10.0928 0.603675 11.0645C1.00479 12.0363 1.59397 12.9192 2.33736 13.6626C3.08074 14.406 3.96368 14.9952 4.93546 15.3963C5.90723 15.7974 6.94869 16.0026 7.99999 16Z" fill="#2775CA"/>
<path d="M10.2 9.26687C10.2 8.10324 9.50037 7.6996 8.10037 7.53306C7.09964 7.39996 6.90037 7.13306 6.90037 6.66687C6.90037 6.20069 7.23346 5.8996 7.89964 5.8996C8.50037 5.8996 8.83346 6.0996 9 6.59996C9.01789 6.64817 9.05015 6.68972 9.09243 6.71899C9.1347 6.74826 9.18495 6.76383 9.23637 6.7636H9.76946C9.80033 6.7644 9.83105 6.75891 9.85973 6.74746C9.88842 6.73601 9.91447 6.71884 9.93631 6.697C9.95815 6.67516 9.97532 6.64911 9.98677 6.62042C9.99822 6.59174 10.0037 6.56102 10.0029 6.53015V6.49742C9.93851 6.13614 9.75658 5.80624 9.48539 5.55899C9.21421 5.31175 8.86895 5.16099 8.50327 5.13015V4.33015C8.50327 4.19706 8.40291 4.09742 8.23637 4.06396H7.736C7.60291 4.06396 7.50327 4.1636 7.46982 4.33015V5.0996C6.46691 5.23633 5.83346 5.8996 5.83346 6.73306C5.83346 7.83342 6.50037 8.26687 7.90037 8.43342C8.83346 8.59996 9.13673 8.79706 9.13673 9.33306C9.13673 9.86906 8.67055 10.2334 8.03709 10.2334C7.17018 10.2334 6.87346 9.86978 6.77018 9.36651C6.76066 9.31029 6.73171 9.25919 6.68839 9.22211C6.64507 9.18504 6.59011 9.16433 6.53309 9.1636H5.96364C5.93279 9.1629 5.90212 9.16847 5.87348 9.17995C5.84484 9.19144 5.81883 9.20861 5.79701 9.23043C5.77519 9.25225 5.75802 9.27826 5.74654 9.3069C5.73505 9.33554 5.72949 9.36621 5.73018 9.39706V9.43051C5.864 10.264 6.39709 10.864 7.49746 11.0305V11.8305C7.49746 11.9636 7.59709 12.064 7.76364 12.0974H8.264C8.39709 12.0974 8.49746 11.9971 8.53018 11.8305V11.0305C9.53018 10.864 10.1971 10.1636 10.1971 9.26396L10.2 9.26687Z" fill="white"/>
<path d="M6.29964 12.7666C5.34052 12.4148 4.51254 11.777 3.92762 10.9394C3.3427 10.1019 3.02904 9.10489 3.02904 8.08329C3.02904 7.0617 3.3427 6.06473 3.92762 5.22717C4.51254 4.3896 5.34052 3.75181 6.29964 3.40002C6.36363 3.37234 6.41738 3.32536 6.45337 3.26564C6.48936 3.20592 6.50579 3.13644 6.50036 3.06693V2.60002C6.50485 2.53878 6.48699 2.47798 6.45008 2.4289C6.41317 2.37982 6.35972 2.34579 6.29964 2.33311C6.25272 2.32822 6.20557 2.34007 6.16654 2.36657C4.95303 2.75227 3.89373 3.51414 3.14198 4.54189C2.39022 5.56964 1.98502 6.80995 1.98502 8.08329C1.98502 9.35664 2.39022 10.5969 3.14198 11.6247C3.89373 12.6524 4.95303 13.4143 6.16654 13.8C6.19426 13.8161 6.22539 13.8254 6.2574 13.8272C6.2894 13.8289 6.32137 13.8231 6.35067 13.8101C6.37998 13.7971 6.40579 13.7774 6.42599 13.7525C6.44619 13.7276 6.46022 13.6983 6.46691 13.6669C6.50036 13.6335 6.50036 13.6 6.50036 13.5331V13.0669C6.50036 12.9666 6.4 12.8335 6.29964 12.7666ZM9.83345 2.36657C9.80569 2.35047 9.7745 2.34118 9.74245 2.33947C9.7104 2.33777 9.67841 2.34369 9.64909 2.35675C9.61977 2.36981 9.59397 2.38964 9.57381 2.41461C9.55364 2.43958 9.53969 2.46897 9.53309 2.50038C9.50036 2.53311 9.50036 2.56657 9.50036 2.63347V3.09966C9.50598 3.16688 9.52693 3.23192 9.5616 3.28979C9.59627 3.34766 9.64374 3.39681 9.70036 3.43347C10.6595 3.78527 11.4875 4.42305 12.0724 5.26062C12.6573 6.09819 12.971 7.09515 12.971 8.11675C12.971 9.13834 12.6573 10.1353 12.0724 10.9729C11.4875 11.8104 10.6595 12.4482 9.70036 12.8C9.63644 12.8277 9.58278 12.8747 9.54691 12.9345C9.51105 12.9942 9.49477 13.0637 9.50036 13.1331V13.6C9.49584 13.6612 9.51361 13.7219 9.55037 13.7709C9.58713 13.82 9.64041 13.8541 9.70036 13.8669C9.74728 13.8718 9.79442 13.86 9.83345 13.8335C11.0465 13.4424 12.1043 12.6767 12.8546 11.6465C13.6049 10.6162 14.0092 9.37454 14.0092 8.10002C14.0092 6.8255 13.6049 5.58381 12.8546 4.55357C12.1043 3.52332 11.0465 2.75761 9.83345 2.36657Z" fill="white"/>
</g>
<defs>
<clipPath id="clip0_222_169">
<rect width="16" height="16" fill="white"/>
</clipPath>
</defs>
</svg>
